<svg width="24" height="24" viewBox="0 0 24 24" fill="none" xmlns="http://www.w3.org/2000/svg">
<path d="M19.5 3.9375H4.5C4.1519 3.9375 3.81806 4.07578 3.57192 4.32192C3.32578 4.56806 3.1875 4.9019 3.1875 5.25V10.5C3.1875 15.3694 5.5425 18.3187 7.51875 19.935C9.64969 21.6787 11.7628 22.2684 11.8519 22.2928C11.9489 22.3193 12.0511 22.3193 12.1481 22.2928C12.2372 22.2684 14.3503 21.6787 16.4813 19.935C18.4575 18.3187 20.8125 15.3694 20.8125 10.5V5.25C20.8125 4.9019 20.6742 4.56806 20.4281 4.32192C20.1819 4.07578 19.8481 3.9375 19.5 3.9375ZM19.6875 5.25V10.5C19.6875 10.8178 19.6763 11.13 19.6556 11.4375H12.5625V5.0625H19.5C19.5497 5.0625 19.5974 5.08225 19.6326 5.11742C19.6677 5.15258 19.6875 5.20027 19.6875 5.25ZM4.3125 5.25C4.3125 5.20027 4.33225 5.15258 4.36742 5.11742C4.40258 5.08225 4.45027 5.0625 4.5 5.0625H11.4375V11.4375H4.34438C4.32375 11.13 4.3125 10.8178 4.3125 10.5V5.25ZM4.47281 12.5625H11.4375V20.955C10.2667 20.4831 9.17429 19.8364 8.1975 19.0369C6.14063 17.3437 4.89375 15.1687 4.47281 12.5625ZM15.8025 19.0369C14.8257 19.8364 13.7333 20.4831 12.5625 20.955V12.5625H19.5272C19.1062 15.1687 17.8594 17.3437 15.8025 19.0369Z" fill="#FFD900"/>
</svg>
