<svg width="24" height="24" viewBox="0 0 24 24" fill="none" xmlns="http://www.w3.org/2000/svg">
<path d="M12.9375 12C12.9375 12.1854 12.8825 12.3667 12.7795 12.5208C12.6765 12.675 12.5301 12.7952 12.3588 12.8661C12.1875 12.9371 11.999 12.9557 11.8171 12.9195C11.6352 12.8833 11.4682 12.794 11.3371 12.6629C11.206 12.5318 11.1167 12.3648 11.0805 12.1829C11.0443 12.001 11.0629 11.8125 11.1339 11.6412C11.2048 11.4699 11.325 11.3235 11.4792 11.2205C11.6333 11.1175 11.8146 11.0625 12 11.0625C12.2486 11.0625 12.4871 11.1613 12.6629 11.3371C12.8387 11.5129 12.9375 11.7514 12.9375 12ZM7.875 11.0625C7.68958 11.0625 7.50833 11.1175 7.35416 11.2205C7.19998 11.3235 7.07982 11.4699 7.00887 11.6412C6.93791 11.8125 6.91934 12.001 6.95552 12.1829C6.99169 12.3648 7.08098 12.5318 7.21209 12.6629C7.3432 12.794 7.51025 12.8833 7.69211 12.9195C7.87396 12.9557 8.06246 12.9371 8.23377 12.8661C8.40507 12.7952 8.55149 12.675 8.65451 12.5208C8.75752 12.3667 8.8125 12.1854 8.8125 12C8.8125 11.7514 8.71373 11.5129 8.53792 11.3371C8.3621 11.1613 8.12364 11.0625 7.875 11.0625ZM16.125 11.0625C15.9396 11.0625 15.7583 11.1175 15.6042 11.2205C15.45 11.3235 15.3298 11.4699 15.2589 11.6412C15.1879 11.8125 15.1693 12.001 15.2055 12.1829C15.2417 12.3648 15.331 12.5318 15.4621 12.6629C15.5932 12.794 15.7602 12.8833 15.9421 12.9195C16.124 12.9557 16.3125 12.9371 16.4838 12.8661C16.6551 12.7952 16.8015 12.675 16.9045 12.5208C17.0075 12.3667 17.0625 12.1854 17.0625 12C17.0625 11.7514 16.9637 11.5129 16.7879 11.3371C16.6121 11.1613 16.3736 11.0625 16.125 11.0625ZM21.5625 6V18C21.5625 18.3481 21.4242 18.6819 21.1781 18.9281C20.9319 19.1742 20.5981 19.3125 20.25 19.3125H7.70907L4.60032 21.9975L4.59469 22.0022C4.35903 22.2029 4.05952 22.3129 3.75 22.3125C3.5572 22.3121 3.36682 22.2695 3.19219 22.1878C2.96576 22.083 2.77423 21.9153 2.64042 21.7047C2.50662 21.4941 2.43618 21.2495 2.4375 21V6C2.4375 5.6519 2.57578 5.31806 2.82193 5.07192C3.06807 4.82578 3.40191 4.6875 3.75 4.6875H20.25C20.5981 4.6875 20.9319 4.82578 21.1781 5.07192C21.4242 5.31806 21.5625 5.6519 21.5625 6ZM20.4375 6C20.4375 5.95027 20.4177 5.90258 20.3826 5.86742C20.3474 5.83225 20.2997 5.8125 20.25 5.8125H3.75C3.70027 5.8125 3.65258 5.83225 3.61742 5.86742C3.58226 5.90258 3.5625 5.95027 3.5625 6V21C3.56256 21.0354 3.57264 21.0701 3.59157 21.1C3.6105 21.1299 3.63752 21.1538 3.66949 21.169C3.70146 21.1842 3.73709 21.1901 3.77224 21.1859C3.80739 21.1817 3.84063 21.1676 3.86813 21.1453L7.1325 18.3253C7.23448 18.2367 7.36493 18.1878 7.5 18.1875H20.25C20.2997 18.1875 20.3474 18.1677 20.3826 18.1326C20.4177 18.0974 20.4375 18.0497 20.4375 18V6Z" fill="#FFD900"/>
</svg>
