<svg width="1360" height="239" viewBox="0 0 1360 239" fill="none" xmlns="http://www.w3.org/2000/svg">
<path d="M0 0H239.349V239H0V0Z" fill="#FFD900"/>
<path d="M385.557 119.974C385.557 145.226 389.494 164.188 397.368 176.86C405.334 189.439 417.469 195.729 433.772 195.729C443.128 195.729 451.604 192.584 459.2 186.294C466.795 179.912 473.233 170.015 478.513 156.603L500.606 165.621C486.804 200.03 464.433 217.235 433.494 217.235C409.132 217.235 390.374 208.864 377.22 192.122C364.159 175.38 357.628 151.331 357.628 119.974C357.628 56.2438 382.454 24.3786 432.105 24.3786C463.507 24.3786 485.09 39.8718 496.854 70.8583L473.511 79.8768C470.084 69.4246 464.711 61.1924 457.393 55.1801C450.168 49.0753 441.785 46.0229 432.244 46.0229C416.404 46.0229 404.639 51.9889 396.951 63.921C389.355 75.8531 385.557 94.5375 385.557 119.974Z" fill="#FFD900"/>
<path d="M540.901 27.2923H655.255V48.9365H611.348V192.816H655.255V214.46H540.901V192.816H584.809V48.9365H540.901V27.2923Z" fill="#FFD900"/>
<path d="M839.223 83.3454C839.223 94.9075 836.444 105.221 830.886 114.286C825.42 123.35 817.547 130.426 807.265 135.514C797.075 140.601 785.264 143.145 771.833 143.145H732.788V214.46H706.249V27.2923H770.165C792.212 27.2923 809.21 32.2408 821.159 42.138C833.202 51.9427 839.223 65.6785 839.223 83.3454ZM812.545 83.7616C812.545 60.2674 797.353 48.5203 766.97 48.5203H732.788V122.194H768.081C781.883 122.194 792.721 118.818 800.595 112.066C808.561 105.313 812.545 95.8787 812.545 83.7616Z" fill="#FFD900"/>
<path d="M976.225 214.46V128.021H903.695V214.46H877.155V27.2923H903.695V105.822H976.225V27.2923H1002.76V214.46H976.225Z" fill="#FFD900"/>
<path d="M1048.06 214.46V27.2923H1175.75V48.9365H1074.6V107.487H1167.42V128.854H1074.6V192.816H1181.45V214.46H1048.06Z" fill="#FFD900"/>
<path d="M1329.43 214.46L1278.58 134.681H1245.51V214.46H1218.97V27.2923H1285.94C1307.52 27.2923 1323.97 31.7784 1335.27 40.7506C1346.57 49.6303 1352.22 62.3948 1352.22 79.0443C1352.22 92.8263 1347.87 104.435 1339.16 113.869C1330.54 123.304 1318.96 129.224 1304.42 131.629L1360 214.46H1329.43ZM1325.54 79.4605C1325.54 58.8337 1311.46 48.5203 1283.3 48.5203H1245.51V113.731H1284.41C1297.66 113.731 1307.8 110.771 1314.84 104.851C1321.97 98.9311 1325.54 90.4677 1325.54 79.4605Z" fill="#FFD900"/>
</svg>
