<svg width="32" height="32" viewBox="0 0 32 32" fill="none" xmlns="http://www.w3.org/2000/svg">
<path d="M11.5 16.7501H5.00003C4.758 16.7495 4.51874 16.6985 4.2975 16.6004C4.07626 16.5023 3.87788 16.3591 3.71503 16.1801C3.54877 15.9984 3.42221 15.7841 3.34344 15.5508C3.26467 15.3175 3.23541 15.0703 3.25753 14.8251C3.42467 12.9881 3.98915 11.2094 4.91185 9.61223C5.83455 8.01504 7.09342 6.63752 8.60128 5.57508C8.79967 5.43478 9.0251 5.33734 9.26322 5.28895C9.50133 5.24057 9.74692 5.2423 9.98433 5.29404C10.2217 5.34578 10.4458 5.44639 10.6422 5.58947C10.8386 5.73255 11.003 5.91496 11.125 6.12508L14.375 11.7501C14.4745 11.9225 14.5014 12.1273 14.4498 12.3195C14.3982 12.5118 14.2724 12.6756 14.1 12.7751C13.9276 12.8745 13.7228 12.9014 13.5306 12.8499C13.3383 12.7983 13.1745 12.6725 13.075 12.5001L9.82753 6.87508C9.81032 6.84492 9.78702 6.81868 9.75911 6.79803C9.7312 6.77738 9.6993 6.76276 9.66543 6.75512C9.63157 6.74748 9.59648 6.74697 9.5624 6.75363C9.52833 6.7603 9.49602 6.77399 9.46753 6.79383C8.13606 7.73149 7.02448 8.94755 6.20988 10.3577C5.39528 11.7678 4.89714 13.3382 4.75003 14.9601C4.7463 14.9979 4.75073 15.0362 4.76302 15.0722C4.77531 15.1082 4.79517 15.1411 4.82128 15.1688C4.84345 15.1945 4.87091 15.215 4.90176 15.229C4.93261 15.243 4.96614 15.2502 5.00003 15.2501H11.5C11.6989 15.2501 11.8897 15.3291 12.0304 15.4697C12.171 15.6104 12.25 15.8012 12.25 16.0001C12.25 16.199 12.171 16.3898 12.0304 16.5304C11.8897 16.6711 11.6989 16.7501 11.5 16.7501ZM28.7425 14.8251C28.5754 12.9881 28.0109 11.2094 27.0882 9.61223C26.1655 8.01504 24.9066 6.63752 23.3988 5.57508C23.2004 5.43478 22.975 5.33734 22.7368 5.28895C22.4987 5.24057 22.2531 5.2423 22.0157 5.29404C21.7783 5.34578 21.5543 5.44639 21.3579 5.58947C21.1615 5.73255 20.9971 5.91496 20.875 6.12508L17.625 11.7501C17.5256 11.9225 17.4987 12.1273 17.5502 12.3195C17.6018 12.5118 17.7276 12.6756 17.9 12.7751C18.0724 12.8745 18.2773 12.9014 18.4695 12.8499C18.6617 12.7983 18.8256 12.6725 18.925 12.5001L22.1725 6.87508C22.1897 6.84492 22.213 6.81868 22.2409 6.79803C22.2688 6.77738 22.3008 6.76276 22.3346 6.75512C22.3685 6.74748 22.4036 6.74697 22.4377 6.75363C22.4717 6.7603 22.504 6.77399 22.5325 6.79383C23.864 7.73149 24.9756 8.94755 25.7902 10.3577C26.6048 11.7678 27.1029 13.3382 27.25 14.9601C27.2538 14.9979 27.2493 15.0362 27.237 15.0722C27.2247 15.1082 27.2049 15.1411 27.1788 15.1688C27.1566 15.1945 27.1291 15.215 27.0983 15.229C27.0674 15.243 27.0339 15.2502 27 15.2501H20.5C20.3011 15.2501 20.1103 15.3291 19.9697 15.4697C19.829 15.6104 19.75 15.8012 19.75 16.0001C19.75 16.199 19.829 16.3898 19.9697 16.5304C20.1103 16.6711 20.3011 16.7501 20.5 16.7501H27C27.2421 16.7495 27.4813 16.6985 27.7026 16.6004C27.9238 16.5023 28.1222 16.3591 28.285 16.1801C28.4513 15.9984 28.5778 15.7841 28.6566 15.5508C28.7354 15.3175 28.7646 15.0703 28.7425 14.8251ZM18.9 19.5226C18.8518 19.4354 18.7866 19.3587 18.7084 19.297C18.6302 19.2352 18.5405 19.1897 18.4445 19.1631C18.3484 19.1364 18.2481 19.1292 18.1492 19.1417C18.0504 19.1543 17.955 19.1864 17.8688 19.2363C17.7825 19.2861 17.707 19.3526 17.6467 19.4319C17.5864 19.5113 17.5425 19.6018 17.5176 19.6983C17.4927 19.7948 17.4873 19.8953 17.5016 19.9939C17.516 20.0925 17.5499 20.1872 17.6013 20.2726L20.8288 25.8638C20.8463 25.8938 20.8574 25.9272 20.8613 25.9617C20.8652 25.9962 20.8619 26.0312 20.8515 26.0643C20.8412 26.0975 20.824 26.1282 20.8012 26.1543C20.7783 26.1805 20.7503 26.2016 20.7188 26.2163C19.2389 26.8974 17.6291 27.2501 16 27.2501C14.3709 27.2501 12.7611 26.8974 11.2813 26.2163C11.2498 26.2016 11.2217 26.1805 11.1989 26.1543C11.176 26.1282 11.1589 26.0975 11.1485 26.0643C11.1382 26.0312 11.1349 25.9962 11.1388 25.9617C11.1427 25.9272 11.1538 25.8938 11.1713 25.8638L14.3988 20.2726C14.4502 20.1872 14.484 20.0925 14.4984 19.9939C14.5128 19.8953 14.5073 19.7948 14.4824 19.6983C14.4575 19.6018 14.4137 19.5113 14.3534 19.4319C14.2931 19.3526 14.2176 19.2861 14.1313 19.2363C14.045 19.1864 13.9497 19.1543 13.8508 19.1417C13.752 19.1292 13.6516 19.1364 13.5556 19.1631C13.4596 19.1897 13.3699 19.2352 13.2916 19.297C13.2134 19.3587 13.1483 19.4354 13.1 19.5226L9.87503 25.1138C9.75332 25.3243 9.6768 25.5578 9.65033 25.7994C9.62386 26.0411 9.64803 26.2856 9.7213 26.5174C9.79456 26.7492 9.91532 26.9631 10.0759 27.1457C10.2364 27.3282 10.4332 27.4753 10.6538 27.5776C12.3311 28.3501 14.1559 28.7501 16.0025 28.7501C17.8492 28.7501 19.6739 28.3501 21.3513 27.5776C21.5714 27.4748 21.7677 27.3274 21.9277 27.1447C22.0878 26.9619 22.208 26.7479 22.2808 26.5161C22.3536 26.2844 22.3773 26.04 22.3505 25.7986C22.3237 25.5572 22.2469 25.324 22.125 25.1138L18.9 19.5226ZM16 17.2501C16.2473 17.2501 16.4889 17.1768 16.6945 17.0394C16.9001 16.9021 17.0603 16.7068 17.1549 16.4784C17.2495 16.25 17.2742 15.9987 17.226 15.7562C17.1778 15.5137 17.0587 15.291 16.8839 15.1162C16.7091 14.9414 16.4864 14.8223 16.2439 14.7741C16.0014 14.7259 15.7501 14.7506 15.5217 14.8452C15.2933 14.9398 15.098 15.1001 14.9607 15.3056C14.8233 15.5112 14.75 15.7529 14.75 16.0001C14.75 16.3316 14.8817 16.6495 15.1161 16.884C15.3506 17.1184 15.6685 17.2501 16 17.2501Z" fill="black"/>
</svg>
